<?xml version="1.0" standalone="no"?>
<!DOCTYPE svg PUBLIC "-//W3C//DTD SVG 20010904//EN"
 "http://www.w3.org/TR/2001/REC-SVG-20010904/DTD/svg10.dtd">
<svg version="1.0" xmlns="http://www.w3.org/2000/svg"
 width="2048.000000pt" height="2048.000000pt" viewBox="0 0 2048.000000 2048.000000"
 preserveAspectRatio="xMidYMid meet">
<metadata>
Created by potrace 1.14, written by Peter Selinger 2001-2017
</metadata>
<g transform="translate(0.000000,2048.000000) scale(0.100000,-0.100000)"
fill="#000000" stroke="none">
<path d="M9707 18903 c-3 -3 -91 -7 -194 -9 -251 -5 -340 -13 -428 -36 -41
-11 -48 -12 -125 -23 -25 -4 -56 -8 -69 -10 -31 -5 -151 -66 -151 -77 0 -4 -6
-8 -13 -8 -7 0 -20 -12 -29 -27 -9 -16 -25 -37 -35 -48 -11 -11 -21 -24 -22
-30 -2 -5 -5 -14 -7 -20 -1 -5 -7 -26 -13 -45 -6 -19 -13 -53 -17 -75 -7 -48
-12 -54 -50 -61 -72 -12 -227 -84 -329 -153 -22 -15 -60 -39 -85 -52 -25 -13
-49 -27 -55 -32 -18 -14 -84 -56 -105 -67 -13 -7 -26 -7 -37 -1 -43 22 -317
48 -348 32 -5 -3 -19 -6 -30 -7 -95 -8 -162 -22 -191 -41 -11 -7 -23 -11 -26
-8 -9 9 -102 -61 -125 -94 -42 -62 -67 -167 -67 -281 0 -97 24 -261 45 -301 4
-8 10 -37 14 -64 3 -26 8 -51 11 -56 3 -5 -1 -28 -7 -51 -7 -24 -13 -45 -13
-48 -3 -15 -41 -108 -52 -125 -7 -11 -27 -65 -44 -120 -18 -55 -34 -107 -38
-115 -3 -8 -6 -22 -8 -30 -2 -8 -8 -35 -13 -60 -13 -63 -17 -78 -36 -142 -17
-59 -21 -78 -29 -138 -5 -37 -13 -82 -21 -115 -5 -27 -13 -95 -20 -175 -3 -36
-8 -81 -10 -100 -6 -41 -16 -356 -15 -450 2 -121 3 -145 1 -175 -1 -31 -1 -43
-1 -110 l1 -40 -23 26 c-41 46 -162 125 -301 197 -75 39 -149 79 -164 89 -28
19 -138 73 -149 73 -3 0 -20 6 -37 14 -32 14 -144 56 -162 61 -5 1 -17 5 -25
8 -134 51 -208 62 -470 73 -190 7 -278 -3 -372 -43 -65 -28 -71 -31 -176 -102
-155 -105 -287 -285 -353 -481 -12 -36 -31 -85 -42 -110 -11 -25 -21 -49 -23
-55 -2 -5 -12 -37 -24 -69 -11 -33 -18 -62 -15 -64 3 -3 1 -10 -4 -16 -5 -6
-12 -29 -15 -51 -7 -43 -12 -74 -21 -115 -9 -42 -15 -69 -20 -92 -3 -13 -7
-41 -9 -63 -3 -22 -10 -85 -17 -140 -12 -109 -16 -629 -5 -710 4 -27 8 -66 10
-85 12 -123 37 -220 62 -241 12 -10 10 -17 -13 -48 -76 -98 -232 -346 -260
-412 -56 -129 -145 -353 -150 -376 -3 -13 -9 -23 -14 -23 -5 0 -9 -6 -9 -14 0
-8 -18 -54 -41 -103 -78 -168 -96 -208 -104 -233 -4 -14 -11 -29 -15 -35 -3
-5 -17 -39 -29 -75 -12 -36 -42 -112 -66 -170 -46 -113 -57 -139 -60 -155 -2
-5 -19 -53 -40 -105 -20 -52 -38 -99 -39 -105 -1 -5 -4 -14 -8 -20 -3 -5 -17
-39 -31 -75 -42 -108 -91 -235 -92 -240 -1 -3 -5 -12 -8 -20 -8 -20 -30 -82
-73 -210 -3 -8 -5 -16 -4 -18 0 -1 -7 -16 -15 -32 -9 -17 -13 -30 -11 -30 3 0
-1 -18 -9 -40 -8 -22 -14 -42 -14 -45 -1 -8 -9 -46 -27 -120 -9 -38 -18 -80
-20 -92 -8 -46 -13 -70 -38 -179 -14 -62 -28 -127 -31 -145 -19 -127 -25 -170
-29 -214 -2 -28 -7 -71 -10 -95 -3 -25 -8 -65 -11 -90 -3 -25 -7 -56 -10 -70
-3 -14 -7 -38 -10 -55 -3 -16 -7 -41 -10 -55 -3 -14 -7 -54 -10 -90 -12 -145
-17 -195 -21 -202 -2 -3 -6 -48 -9 -100 -2 -52 -9 -107 -15 -123 -18 -47 -79
-243 -84 -270 -3 -14 -7 -28 -10 -33 -3 -5 -7 -19 -10 -33 -2 -13 -16 -71 -30
-129 -13 -57 -23 -107 -20 -111 2 -4 -51 -17 -119 -29 -268 -48 -465 -102
-602 -165 -130 -59 -185 -100 -169 -126 10 -17 35 -9 102 31 132 78 287 128
569 185 95 19 179 35 187 35 10 0 13 -8 11 -22 -16 -104 -26 -169 -30 -203 -2
-22 -7 -56 -9 -75 -21 -140 -27 -605 -12 -790 5 -58 10 -123 10 -144 l1 -40
-110 -28 c-299 -77 -505 -143 -505 -162 0 -3 7 -11 15 -20 13 -13 25 -11 101
16 87 30 487 138 512 138 7 0 11 -4 8 -9 -3 -5 -2 -33 4 -62 5 -30 12 -71 15
-92 3 -21 12 -73 21 -115 21 -100 20 -96 39 -177 10 -38 18 -75 19 -82 1 -7 5
-16 9 -19 4 -4 7 -14 7 -23 0 -37 132 -435 151 -455 5 -6 9 -20 9 -33 0 -13 4
-23 9 -23 5 0 11 -10 14 -22 3 -13 11 -37 18 -54 12 -31 11 -33 -44 -95 -58
-63 -69 -92 -42 -103 10 -4 31 11 60 42 25 26 45 50 45 55 0 20 27 3 39 -25
24 -56 117 -240 155 -308 21 -36 40 -73 43 -83 3 -9 9 -17 14 -17 5 0 9 -4 9
-9 0 -29 276 -442 385 -576 17 -21 41 -51 55 -69 14 -17 31 -37 38 -44 7 -8
25 -30 40 -50 15 -20 40 -50 56 -67 15 -16 47 -52 70 -79 47 -56 327 -338 402
-406 46 -41 122 -108 199 -175 17 -14 83 -67 147 -117 65 -51 118 -95 118
-100 0 -4 5 -8 11 -8 6 0 66 -40 135 -90 68 -49 128 -90 134 -90 5 0 10 -4 10
-9 0 -5 9 -13 20 -16 11 -3 26 -12 32 -18 28 -27 374 -237 389 -237 5 0 9 -4
9 -10 0 -5 6 -10 13 -10 7 0 29 -11 50 -25 20 -14 37 -23 37 -20 0 4 13 -3 28
-14 15 -10 129 -69 252 -129 216 -105 260 -125 333 -156 17 -7 56 -23 84 -36
29 -13 60 -23 68 -23 8 0 15 -4 15 -8 0 -3 8 -9 18 -12 9 -3 49 -17 87 -32 39
-14 138 -50 220 -79 83 -30 157 -56 165 -59 67 -26 517 -153 579 -163 14 -3
40 -9 56 -14 36 -12 258 -60 299 -66 15 -2 36 -6 46 -9 10 -3 33 -8 51 -10 19
-3 44 -7 57 -10 48 -11 60 -13 147 -25 50 -6 97 -14 105 -17 8 -3 33 -7 55 -9
22 -2 56 -6 75 -9 19 -2 60 -7 90 -10 30 -3 71 -8 90 -11 89 -13 224 -24 480
-40 234 -14 844 -8 1040 11 19 2 73 6 120 10 47 4 99 8 115 10 17 2 55 7 85 9
30 3 75 9 100 12 25 3 56 8 70 9 80 11 127 18 145 22 11 2 34 5 50 7 44 5 107
16 135 22 14 3 39 7 55 10 17 2 75 14 130 25 54 12 111 22 125 24 14 2 25 4
25 5 0 1 7 3 15 5 8 2 44 10 80 18 36 8 126 31 200 51 74 20 144 38 155 41 11
2 58 16 105 30 47 14 92 27 100 30 36 9 406 138 415 145 6 4 31 13 58 21 26 7
47 17 47 21 0 4 7 8 15 8 20 0 168 61 176 73 3 5 9 8 13 8 3 -1 22 6 42 14 20
8 38 15 40 15 4 0 216 98 234 109 8 5 71 37 140 72 69 35 127 66 130 69 3 3
16 11 30 18 53 26 161 88 178 102 9 8 28 21 42 27 129 64 623 413 740 523 9 8
33 28 54 44 21 16 50 41 66 55 15 14 47 44 71 65 107 96 146 135 141 140 -3 4
-1 6 5 6 11 0 175 164 255 254 74 84 79 90 122 140 22 28 51 60 64 73 12 13
22 26 22 30 0 3 12 20 28 38 48 57 57 69 154 206 93 131 282 429 272 429 -3 0
3 12 14 28 21 28 119 223 167 327 69 153 144 348 185 480 12 39 24 77 27 85 7
18 4 6 42 150 16 63 33 129 36 145 29 138 47 235 50 260 1 17 5 44 8 60 9 48
19 126 22 175 2 25 4 45 5 45 3 0 9 85 12 167 2 43 6 78 10 78 4 0 5 6 3 12
-3 7 -7 110 -9 228 -3 118 -7 238 -10 265 -27 277 -30 250 23 246 24 -1 54 -5
65 -7 12 -2 48 -6 81 -9 84 -8 264 -31 435 -55 80 -11 161 -23 180 -25 19 -3
44 -7 56 -10 12 -2 39 -7 60 -10 81 -12 351 -66 404 -80 30 -9 65 -18 77 -21
12 -2 35 -9 50 -15 22 -8 30 -7 40 7 19 26 3 37 -87 62 -68 20 -277 67 -340
77 -35 5 -210 34 -240 39 -21 4 -110 17 -270 40 -46 7 -348 44 -425 52 -58 6
-87 9 -130 12 -13 1 -20 9 -21 25 -1 25 -41 232 -68 352 -2 11 -12 47 -21 80
-10 33 -20 75 -22 93 -3 17 -9 32 -14 32 -5 0 -9 8 -9 17 0 10 -12 53 -26 96
-14 43 -23 81 -20 84 16 16 800 5 881 -12 11 -3 45 -7 75 -10 89 -9 142 -15
200 -26 30 -6 67 -13 83 -15 15 -3 64 -18 109 -35 44 -16 89 -29 100 -29 24 0
23 32 -2 48 -30 18 -190 70 -240 77 -8 1 -64 10 -125 18 -112 16 -157 22 -280
34 -38 3 -241 7 -450 8 l-380 3 -23 63 c-13 35 -30 78 -37 94 -56 132 -101
233 -125 282 -25 51 -27 60 -14 74 8 9 14 36 14 63 0 28 5 48 13 51 15 6 374
63 442 70 28 3 61 8 75 10 14 3 48 7 75 10 28 3 66 8 85 10 61 8 141 17 300
32 94 9 510 11 750 3 138 -4 155 -3 158 12 4 21 -13 26 -113 33 -44 3 -111 8
-150 11 -91 8 -516 8 -580 0 -28 -3 -79 -8 -115 -11 -63 -6 -94 -9 -210 -20
-88 -9 -334 -42 -475 -65 -71 -11 -141 -22 -155 -25 -14 -2 -44 -6 -67 -10
-40 -6 -43 -5 -44 17 0 12 -2 32 -4 43 -2 11 -9 61 -15 110 -13 95 -17 120
-20 120 -3 0 -8 44 -14 110 -3 33 -8 74 -10 90 -7 41 -17 133 -20 175 -2 19
-8 60 -14 90 -26 125 -51 254 -57 290 -7 46 -16 95 -20 110 -2 8 -7 29 -10 45
-2 17 -7 41 -10 55 -3 14 -8 36 -11 50 -3 14 -9 41 -14 60 -5 19 -11 46 -14
60 -3 14 -7 34 -10 45 -2 11 -10 43 -16 70 -6 28 -14 59 -16 70 -3 11 -7 31
-10 45 -3 14 -8 34 -11 45 -4 11 -8 27 -9 35 -2 8 -8 31 -13 50 -11 34 -78
276 -126 455 -14 50 -48 151 -75 225 -28 74 -52 140 -54 145 -6 20 -19 51 -42
103 -13 29 -24 55 -24 58 0 13 -67 159 -131 287 -60 120 -67 138 -52 144 16 6
83 70 83 79 0 2 8 12 18 22 30 32 60 69 79 99 9 15 20 30 23 33 16 15 144 272
155 310 3 14 15 44 26 67 10 24 19 49 19 56 0 7 4 17 9 23 15 14 60 177 77
279 18 101 27 444 14 540 -5 33 -11 83 -14 110 -4 28 -9 61 -11 75 -3 14 -8
41 -10 60 -7 52 -22 121 -34 153 -6 15 -8 27 -6 27 5 0 -87 181 -126 250 -42
75 -173 215 -249 267 -39 27 -251 133 -265 133 -3 0 -24 9 -48 19 -45 21 -142
53 -167 57 -8 1 -55 9 -105 19 -88 16 -388 23 -477 11 -75 -10 -232 -62 -313
-103 -31 -16 -136 -83 -145 -93 -3 -3 -24 -17 -46 -32 -23 -15 -60 -46 -82
-70 -22 -24 -71 -75 -109 -114 -73 -76 -157 -193 -189 -261 -10 -23 -22 -43
-25 -43 -3 0 -19 17 -36 38 -30 37 -30 37 -32 182 -3 175 -7 306 -16 465 -6
118 -8 135 -19 225 -3 25 -8 65 -10 90 -3 25 -8 56 -10 70 -9 42 -19 104 -22
140 -1 19 -3 35 -4 35 -2 0 -7 26 -13 75 -3 25 -13 74 -22 108 -9 35 -14 66
-11 69 3 4 2 11 -3 17 -5 6 -12 25 -15 41 -6 35 -22 103 -35 160 -6 22 -10 40
-9 40 1 0 -23 93 -38 145 -9 30 -34 109 -56 175 -47 141 -49 148 -49 155 0 3
-6 12 -13 20 -43 54 -50 117 -26 236 29 139 34 185 34 294 1 83 -3 103 -27
156 -41 88 -104 146 -207 190 -107 45 -205 71 -250 67 -83 -8 -220 -7 -220 1
0 5 -6 4 -12 -2 -7 -5 -24 -12 -38 -14 -14 -1 -27 -5 -30 -8 -69 -66 -54 -64
-165 -24 -11 4 -24 8 -30 9 -5 1 -32 10 -60 20 -27 9 -75 24 -105 31 -30 8
-59 16 -65 17 -100 29 -133 39 -150 47 -11 5 -56 19 -100 30 -44 12 -87 24
-95 27 -8 4 -17 7 -20 7 -70 17 -100 33 -109 57 -5 15 -7 30 -4 33 3 3 2 13
-2 23 -5 10 -10 27 -12 38 -14 80 -108 198 -205 259 -71 45 -209 116 -225 116
-6 0 -13 3 -15 8 -4 10 -64 38 -120 57 -26 9 -85 17 -131 19 -46 1 -89 6 -95
10 -7 4 -12 3 -12 -2 0 -9 -78 -8 -205 3 -38 3 -121 7 -183 10 -62 2 -116 6
-121 9 -4 3 -11 3 -14 -1z m-2384 -3808 c-3 -9 -8 -14 -10 -11 -3 3 -2 9 2 15
9 16 15 13 8 -4z m5731 -281 c3 -8 2 -12 -4 -9 -6 3 -10 10 -10 16 0 14 7 11
14 -7z"/>
</g>
</svg>
